<svg width="136" height="40" viewBox="0 0 136 40" fill="none" xmlns="http://www.w3.org/2000/svg">
<path d="M132.07 27.5449V22.0869C132.07 21.8229 132.056 21.4876 132.027 21.0809C131.999 20.6671 131.91 20.2533 131.76 19.8395C131.61 19.4257 131.364 19.0796 131.021 18.8014C130.686 18.5231 130.208 18.384 129.587 18.384C129.337 18.384 129.07 18.4233 128.785 18.5017C128.499 18.5802 128.232 18.7336 127.982 18.9619C127.732 19.1831 127.525 19.5113 127.361 19.9465C127.204 20.3817 127.126 20.9596 127.126 21.6802L125.456 20.8883C125.456 19.975 125.642 19.1189 126.013 18.3198C126.384 17.5207 126.94 16.875 127.682 16.3827C128.431 15.8905 129.373 15.6443 130.508 15.6443C131.414 15.6443 132.152 15.7977 132.723 16.1045C133.294 16.4113 133.736 16.8001 134.05 17.271C134.371 17.7419 134.599 18.2342 134.735 18.7479C134.87 19.2544 134.952 19.7182 134.981 20.1391C135.01 20.5601 135.024 20.8669 135.024 21.0595V27.5449H132.07ZM124.172 27.5449V12.1341H126.762V20.0535H127.126V27.5449H124.172Z" fill="#635BFF"/>
<path d="M117.432 27.8659C115.977 27.8659 114.8 27.5377 113.901 26.8813C113.009 26.2178 112.467 25.2832 112.274 24.0774L115.249 23.628C115.371 24.1702 115.638 24.5947 116.052 24.9015C116.473 25.2083 117.004 25.3617 117.646 25.3617C118.174 25.3617 118.581 25.2618 118.867 25.062C119.152 24.8551 119.295 24.5697 119.295 24.2059C119.295 23.9776 119.238 23.7956 119.123 23.6601C119.009 23.5174 118.752 23.3782 118.353 23.2427C117.96 23.1071 117.347 22.9288 116.512 22.7076C115.57 22.465 114.818 22.1939 114.254 21.8942C113.69 21.5946 113.284 21.2379 113.034 20.824C112.784 20.4031 112.659 19.8965 112.659 19.3044C112.659 18.5624 112.848 17.9202 113.227 17.378C113.605 16.8286 114.136 16.4077 114.821 16.1152C115.513 15.8155 116.327 15.6657 117.261 15.6657C118.167 15.6657 118.97 15.8048 119.669 16.0831C120.368 16.3613 120.932 16.7573 121.36 17.271C121.795 17.7847 122.063 18.3911 122.163 19.0903L119.188 19.6254C119.138 19.1973 118.952 18.8585 118.631 18.6087C118.31 18.359 117.875 18.2128 117.325 18.17C116.79 18.1343 116.359 18.2056 116.031 18.384C115.709 18.5624 115.549 18.8192 115.549 19.1545C115.549 19.3543 115.617 19.522 115.752 19.6575C115.895 19.7931 116.184 19.9322 116.619 20.0749C117.061 20.2176 117.732 20.4031 118.631 20.6314C119.509 20.8597 120.211 21.1273 120.739 21.4341C121.274 21.7337 121.663 22.0976 121.906 22.5257C122.148 22.9466 122.27 23.4567 122.27 24.056C122.27 25.2404 121.842 26.1715 120.986 26.8492C120.129 27.527 118.945 27.8659 117.432 27.8659Z" fill="#635BFF"/>
<path d="M104.076 27.8659C103.249 27.8659 102.546 27.709 101.968 27.395C101.397 27.074 100.962 26.6495 100.662 26.1215C100.37 25.5864 100.224 24.9978 100.224 24.3557C100.224 23.8206 100.306 23.3319 100.47 22.8895C100.634 22.4472 100.898 22.0583 101.262 21.723C101.633 21.3805 102.129 21.0952 102.749 20.8669C103.177 20.7099 103.687 20.5708 104.28 20.4495C104.872 20.3282 105.542 20.214 106.292 20.107C107.041 19.9929 107.865 19.868 108.764 19.7324L107.715 20.3104C107.715 19.6254 107.551 19.1224 107.223 18.8014C106.894 18.4803 106.345 18.3198 105.575 18.3198C105.146 18.3198 104.701 18.4232 104.237 18.6301C103.773 18.837 103.448 19.2045 103.263 19.7324L100.63 18.8977C100.923 17.9417 101.472 17.164 102.278 16.5647C103.085 15.9654 104.183 15.6657 105.575 15.6657C106.595 15.6657 107.501 15.8227 108.293 16.1366C109.085 16.4505 109.684 16.9927 110.091 17.7633C110.319 18.1914 110.455 18.6194 110.497 19.0475C110.54 19.4756 110.562 19.9536 110.562 20.4816V27.5449H108.015V25.169L108.378 25.6613C107.815 26.439 107.205 27.0026 106.548 27.3522C105.899 27.6947 105.075 27.8659 104.076 27.8659ZM104.697 25.5757C105.232 25.5757 105.682 25.483 106.045 25.2975C106.416 25.1048 106.709 24.8872 106.923 24.6446C107.144 24.4021 107.294 24.1987 107.372 24.0346C107.522 23.7207 107.608 23.3568 107.629 22.943C107.658 22.5221 107.672 22.1725 107.672 21.8942L108.528 22.1083C107.665 22.251 106.966 22.3723 106.431 22.4721C105.896 22.5649 105.464 22.6505 105.136 22.729C104.808 22.8075 104.519 22.8931 104.269 22.9858C103.984 23.1 103.752 23.2248 103.573 23.3604C103.402 23.4888 103.274 23.6315 103.188 23.7885C103.11 23.9454 103.07 24.1202 103.07 24.3129C103.07 24.5769 103.135 24.8052 103.263 24.9978C103.399 25.1833 103.588 25.326 103.83 25.4259C104.073 25.5258 104.362 25.5757 104.697 25.5757Z" fill="#635BFF"/>
<path d="M86.0978 27.5449V12.1341H91.0849C91.2062 12.1341 91.456 12.1376 91.8341 12.1448C92.2122 12.1519 92.5761 12.1769 92.9257 12.2197C94.1671 12.3695 95.2195 12.8012 96.0828 13.5146C96.9461 14.2281 97.6024 15.1342 98.0519 16.2329C98.5014 17.3317 98.7261 18.5338 98.7261 19.8395C98.7261 21.1451 98.5014 22.3473 98.0519 23.446C97.6024 24.5448 96.9461 25.4509 96.0828 26.1643C95.2195 26.8778 94.1671 27.3094 92.9257 27.4593C92.5761 27.5021 92.2122 27.527 91.8341 27.5342C91.456 27.5413 91.2062 27.5449 91.0849 27.5449H86.0978ZM89.0516 24.8052H91.0849C91.2776 24.8052 91.538 24.8016 91.8662 24.7945C92.1944 24.7802 92.4905 24.7481 92.7545 24.6982C93.4251 24.5626 93.9709 24.2487 94.3919 23.7564C94.8199 23.2641 95.1339 22.6719 95.3336 21.9799C95.5405 21.2878 95.644 20.5743 95.644 19.8395C95.644 19.0689 95.537 18.3376 95.3229 17.6456C95.116 16.9535 94.7985 16.3685 94.3704 15.8905C93.9424 15.4124 93.4037 15.1092 92.7545 14.9808C92.4905 14.9237 92.1944 14.8916 91.8662 14.8845C91.538 14.8773 91.2776 14.8738 91.0849 14.8738H89.0516V24.8052Z" fill="#635BFF"/>
<path d="M83.1162 27.5449C82.3171 27.6947 81.5323 27.7589 80.7618 27.7375C79.9984 27.7232 79.3134 27.5913 78.707 27.3415C78.1077 27.0847 77.6511 26.6745 77.3372 26.1108C77.0518 25.5829 76.9019 25.0478 76.8877 24.5055C76.8734 23.9562 76.8663 23.3354 76.8663 22.6434V12.7762H79.7772V22.4722C79.7772 22.9216 79.7808 23.3283 79.7879 23.6922C79.8022 24.0489 79.8771 24.3343 80.0126 24.5483C80.2695 24.955 80.6797 25.1762 81.2434 25.2119C81.807 25.2475 82.4313 25.219 83.1162 25.1262V27.5449ZM74.8971 18.2342V15.9868H83.1162V18.2342H74.8971Z" fill="#635BFF"/>
<path d="M67.3414 27.8659C66.5138 27.8659 65.811 27.709 65.2331 27.395C64.6623 27.074 64.2271 26.6495 63.9275 26.1215C63.6349 25.5864 63.4887 24.9978 63.4887 24.3557C63.4887 23.8206 63.5707 23.3319 63.7348 22.8895C63.8989 22.4472 64.1629 22.0583 64.5268 21.723C64.8978 21.3805 65.3936 21.0952 66.0143 20.8669C66.4424 20.7099 66.9525 20.5708 67.5447 20.4495C68.1369 20.3282 68.8075 20.214 69.5567 20.107C70.3058 19.9929 71.1299 19.868 72.0288 19.7324L70.98 20.3104C70.98 19.6254 70.8159 19.1224 70.4877 18.8014C70.1596 18.4803 69.6102 18.3198 68.8396 18.3198C68.4116 18.3198 67.9657 18.4232 67.5019 18.6301C67.0381 18.837 66.7135 19.2045 66.528 19.7324L63.8953 18.8977C64.1879 17.9417 64.7372 17.164 65.5434 16.5647C66.3497 15.9654 67.4484 15.6657 68.8396 15.6657C69.8599 15.6657 70.766 15.8227 71.5579 16.1366C72.3499 16.4505 72.9492 16.9927 73.3559 17.7633C73.5842 18.1914 73.7197 18.6194 73.7625 19.0475C73.8054 19.4756 73.8268 19.9536 73.8268 20.4816V27.5449H71.2797V25.169L71.6436 25.6613C71.0799 26.439 70.4699 27.0026 69.8135 27.3522C69.1643 27.6947 68.3402 27.8659 67.3414 27.8659ZM67.9621 25.5757C68.4972 25.5757 68.9467 25.483 69.3105 25.2975C69.6815 25.1048 69.9741 24.8872 70.1881 24.6446C70.4093 24.4021 70.5591 24.1987 70.6376 24.0346C70.7874 23.7207 70.873 23.3568 70.8944 22.943C70.923 22.5221 70.9372 22.1725 70.9372 21.8942L71.7934 22.1083C70.9301 22.251 70.2309 22.3723 69.6958 22.4721C69.1607 22.5649 68.7291 22.6505 68.4009 22.729C68.0727 22.8075 67.7837 22.8931 67.534 22.9858C67.2486 23.1 67.0167 23.2248 66.8384 23.3604C66.6671 23.4888 66.5387 23.6315 66.4531 23.7885C66.3746 23.9454 66.3354 24.1202 66.3354 24.3129C66.3354 24.5769 66.3996 24.8052 66.528 24.9978C66.6636 25.1833 66.8526 25.326 67.0952 25.4259C67.3378 25.5258 67.6268 25.5757 67.9621 25.5757Z" fill="#635BFF"/>
<path d="M46.144 27.5449V12.1341H48.7553L53.8494 22.3651L58.9435 12.1341H61.5548V27.5449H58.8365V18.3412L54.3631 27.5449H53.3357L48.8623 18.3412V27.5449H46.144Z" fill="#635BFF"/>
<g clip-path="url(#clip0_1_2)">
<path d="M0.518044 29.7006L13.8961 6.45466C14.5925 5.2431 15.8882 4.5 17.2892 4.5C19.8644 4.5 21.7432 6.94737 21.0629 9.42705L17.4998 22.4958L18.7226 23.2147L22.221 17.3265C22.9093 16.1634 24.1726 15.4607 25.525 15.4849C27.6791 15.5172 29.3635 17.3507 29.2258 19.4911L28.6671 28.0206V28.0448C29.3149 27.6167 30.0923 27.3663 30.9264 27.3663C33.1777 27.3663 35.0079 29.1918 35.0079 31.4372C35.0079 33.6826 33.1777 35.5081 30.9264 35.5081C28.6751 35.5081 26.845 33.6826 26.845 31.4372C26.845 31.1165 26.8531 31.106 26.8774 30.9445V30.9122C26.8936 30.8072 26.9098 30.7103 26.926 30.6053L27.7358 25.6701L26.8126 25.0563L21.7108 33.5615C20.9981 34.7488 19.7105 35.4838 18.3177 35.4838C15.7668 35.4838 13.888 33.1172 14.463 30.6456L17.4917 17.698L16.5604 17.3911L7.22327 33.5534C6.53493 34.7488 5.25543 35.4838 3.87066 35.4838C0.898654 35.4838 -0.963908 32.2772 0.518044 29.7006Z" fill="#635BFF"/>
</g>
<defs>
<clipPath id="clip0_1_2">
<rect width="35" height="31" fill="white" transform="matrix(-1 0 0 1 35 4.5)"/>
</clipPath>
</defs>
</svg>
